# xmcd
#
# Track frame offsets:
#	150
#	15260
#	27860
#	45486
#	66400
#	80908
#	100019
#	117345
#	128917
#	142391
#	159442
#	174523
#	181337
#	200489
#	220630
#
# Disc length: 3216 seconds
#
# Revision: 0
# Processed by: cddbd v1.4PL0 Copyright (c) Steve Scherf et al.
# Submitted via: dBpowerAMP V4.0
#
DISCID=cf0c8e0f
DTITLE=Various Artist - CMT Christmas
DYEAR=2001
DGENRE=Country/Christmas
TTITLE0=Adam Gregory - I'll Be Home For Christmas
TTITLE1=Gil Grand - Meet Me Under The Mistletoe
TTITLE2=Julian Austin - Silent Night
TTITLE3=Doc Walker - The Christmas Song
TTITLE4=Beverley Mahood - Christmas Lullaby
TTITLE5=Michael Burgess - O Holy Night
TTITLE6=Tara Lyn Hart - Blue Christmas
TTITLE7=Fred Eaglesmith - Hallelujah
TTITLE8=Oh Susanna - It Came Upon A Midnight Clear
TTITLE9=Adam Gregory - Little Drummer Boy
TTITLE10=Jason McCoy - The Greatest Gift
TTITLE11=Fred Eaglesmith - Go Tell It On The Mountain
TTITLE12=Russell de Carle - Away In A Manger
TTITLE13=Beverley Mahood, Jason McCoy, Adam Gregory, Michael Burgess and Julian Austin - Do You Hear What I Hear?
TTITLE14=Beverley Mahood - Have Yourself a Merry Little Christmas
EXTD=Christmas 
EXTT0=
EXTT1=
EXTT2=
EXTT3=
EXTT4=
EXTT5=
EXTT6=
EXTT7=
EXTT8=
EXTT9=
EXTT10=
EXTT11=
EXTT12=
EXTT13=
EXTT14=
PLAYORDER=
